<svg width="150" height="149" viewBox="0 0 150 149" fill="none" xmlns="http://www.w3.org/2000/svg">
<path d="M135.532 46.9985C149.444 74.8124 135.949 113.681 105.535 129.5C62.4016 151.935 -42.9629 97.501 19.0847 39.9134C82.5371 -9.99983 125.643 27.2292 135.532 46.9985Z" fill="#D9E4F9"/>
<g clip-path="url(#clip0_11523_27707)">
<path d="M95.5374 81.7199C95.7123 81.918 95.8406 82.2094 95.9104 82.5123C96.0037 78.1534 96.062 73.6898 95.8521 69.2841C91.0152 68.7131 85.8057 68.0605 79.9668 67.291C80.2117 69.8201 80.398 72.5588 80.5261 75.8224L82.8685 75.5542L82.9501 76.1135L85.3626 75.6704L86.598 72.6868C87.2173 71.1867 89.7475 72.2372 89.1386 73.736L88.5794 75.0762L93.486 74.1786C94.4616 74.0225 94.975 75.643 94.6632 76.5444C94.6399 76.6027 94.6167 76.6491 94.5931 76.7074C95.2644 77.13 95.5048 78.4577 95.0476 79.1432C95.6082 79.5637 95.9038 80.9532 95.4556 81.6255C95.4791 81.6616 95.5142 81.6849 95.5374 81.7199Z" fill="white"/>
<path d="M87.7179 56.7094C88.5336 55.5323 89.5827 54.5765 90.7831 53.8774V14.9389C90.7831 13.0159 89.198 11.3374 87.2635 11.2094L75.2007 10.3934L75.191 10.3927L71.2269 14.0324C70.8099 14.4154 70.0612 14.6763 69.5217 14.6458L54.3133 13.7809C53.7572 13.7493 52.9842 13.3965 52.5526 12.9579L48.2177 8.5519L36.7516 7.77131C34.5916 7.60894 32.8008 9.17985 32.8008 11.2094V137.861C32.8008 139.935 34.626 141.448 36.7516 141.311L42.0732 140.95C44.7425 124.601 45.6563 108.636 43.9397 99.5198L44.0466 99.508C43.9244 99.3026 44.0382 99.7831 43.8204 95.5144C43.76 95.4679 43.7146 95.4038 43.7059 95.3226C43.6951 95.2282 43.7385 95.1495 43.802 95.0887L43.0072 76.6417L42.8205 60.7797C42.7837 57.5175 46.0719 54.7347 49.3057 54.7097L52.6539 54.6872C53.1355 49.8274 53.0186 49.92 53.1924 49.7726C50.8867 48.3623 48.9421 46.289 47.7889 43.9483C46.9299 43.7169 46.2631 43.3901 45.7295 43.0105C42.9194 41.6335 41.5552 38.5493 41.1615 34.5038C41.0449 28.7967 44.0584 26.2232 49.5374 26.3269C48.8252 25.6549 48.0009 25.096 47.1103 24.6922C46.762 24.5343 46.9948 24.0053 47.3518 24.1617C48.3378 24.6096 49.246 25.2397 50.0256 25.9953C50.2709 24.8192 50.7295 23.6823 51.3921 22.6862C51.481 22.5513 51.6607 22.5162 51.7963 22.6047C51.9295 22.6935 51.966 22.8746 51.8772 23.0082C51.2228 23.9935 50.776 25.1248 50.5578 26.2919C53.0165 22.8927 56.2107 20.8936 60.6334 21.2163C70.9893 21.3891 73.3605 32.9901 64.6539 34.3657C64.6539 34.3664 64.6539 34.3667 64.6539 34.3678C66.5073 41.4771 67.5675 47.1997 63.1507 50.7075H63.1389C62.6653 51.0628 62.3885 51.1693 62.2237 51.2578L61.8476 55.9715C65.1057 56.1096 70.1316 57.5528 71.6921 60.0605C74.6636 62.6486 78.0243 64.7902 81.7396 66.4298L86.6293 65.9573C85.4636 62.8415 85.8681 59.3912 87.7179 56.7094Z" fill="white"/>
<path d="M55.8665 97.8551C55.7828 97.6563 55.9379 98.4927 55.4203 94.2959L50.1816 94.8857C50.5456 98.2974 50.659 98.2412 50.5022 98.4254L55.8665 97.8551Z" fill="white"/>
<path d="M50.113 98.4663C49.9121 98.3179 50.0467 98.3907 49.6023 94.9502L44.4004 95.5358L44.5548 99.0572L50.113 98.4663Z" fill="white"/>
<path d="M94.0312 77.1384C94.0362 77.1375 94.0357 77.1375 94.0312 77.1384Z" fill="white"/>
<path d="M82.3215 87.1626C81.7854 87.291 81.2609 87.4072 80.7363 87.5238C80.7828 89.9363 80.8297 92.4304 80.9112 94.878L84.3493 95.9851C88.2071 97.2205 92.0765 98.4674 95.934 99.6795C95.6596 94.5453 95.764 89.1949 95.8757 83.8525C95.7709 84.1207 95.5843 84.2838 95.3397 84.3303L84.4776 86.3116L84.571 86.9527L82.3215 87.1626Z" fill="white"/>
<path d="M84.3069 80.3728C84.7593 81.2922 84.6025 82.351 83.9971 83.0966L84.3954 85.7412C95.8722 83.5878 95.2602 83.891 95.3626 83.585C95.5909 82.9876 95.1752 81.9885 94.9313 81.9885C94.9251 81.9885 94.922 81.9885 94.9185 81.9885C94.659 82.0363 90.6176 82.7791 90.5083 82.7989C90.3543 82.8277 90.1992 82.7264 90.169 82.5644C90.1406 82.4062 90.2453 82.2549 90.4035 82.2251L94.7957 81.4219C94.7988 81.4212 94.7999 81.4178 94.803 81.4167C94.8148 81.4167 94.8262 81.4167 94.838 81.4053C94.8963 81.3935 94.9778 81.3352 95.0243 81.1839C95.1759 80.7527 95.0361 80.0068 94.7447 79.6689C94.6049 79.494 94.4998 79.5173 94.4651 79.5173H94.4068C94.6843 79.4666 90.2786 80.2684 90.1406 80.2937C89.9865 80.3225 89.8314 80.2212 89.8013 80.0592C89.7728 79.901 89.8776 79.7497 90.0354 79.7199C90.0299 79.7209 90.0295 79.7209 90.0354 79.7199C90.1399 79.7008 92.2114 79.3216 94.4533 78.9112C94.9976 78.5844 94.5896 77.0305 94.022 77.1398C93.7774 77.1842 89.8301 77.9016 89.7194 77.9217C89.3315 77.9824 89.2413 77.4166 89.6146 77.3483L93.9554 76.5548C94.3173 76.373 94.1913 75.292 93.8472 74.8906C93.7188 74.739 93.6258 74.7508 93.5908 74.7626L88.1596 75.7531C87.9088 75.7843 87.7554 75.5463 87.8449 75.3451L88.6023 73.5154C88.9176 72.7268 87.4446 72.1325 87.1337 72.9093C85.7779 76.0688 85.9028 76.151 85.6301 76.2193L83.0312 76.6856L83.4375 79.3827C83.798 79.6224 84.1019 79.9565 84.3069 80.3728Z" fill="white"/>
<path d="M73.4479 76.8016C73.5243 76.8013 73.6016 76.7964 73.678 76.7951C73.5996 76.7378 73.5125 76.6688 73.4316 76.6084L73.4479 76.8016Z" fill="white"/>
<path d="M79.7454 82.6162C79.2035 81.5147 79.5352 80.2116 80.4695 79.4879C80.2693 78.1751 80.1017 77.0753 80.032 76.616C67.7735 79.439 55.3378 74.608 47.5665 61.6272C47.485 61.4874 47.5315 61.3125 47.6713 61.231C47.7996 61.1377 47.9859 61.1845 48.0675 61.3243C53.9781 71.2167 62.913 76.6719 72.8658 76.8148L72.8085 76.1251C71.5513 75.1152 70.3634 74.0137 69.2691 72.831C69.1599 72.7127 69.1668 72.5281 69.2851 72.4188C69.4034 72.3106 69.589 72.3182 69.6973 72.4348C71.1506 74.0071 72.8904 75.5641 74.6507 76.768C76.392 76.683 78.1572 76.4554 79.9418 76.045C79.9408 76.0394 79.9408 76.0391 79.9418 76.045C79.9425 76.045 79.9432 76.0446 79.9435 76.0446L79.9203 75.893H79.9435C79.8037 72.4664 79.6171 69.6226 79.3492 66.9772C79.3263 66.8166 79.4662 66.6362 79.6757 66.6625C82.4022 67.023 84.9733 67.3543 87.4511 67.6673C87.4504 67.6666 87.4501 67.6655 87.4494 67.6648C87.44 67.6499 87.4314 67.6343 87.4223 67.6194L82.2517 66.9772L81.2726 66.8606L79.4894 66.6393L80.5618 66.5345C77.1119 64.9029 73.942 62.8283 71.1565 60.3807C71.0978 60.3279 71.0663 60.2551 71.0621 60.1787C69.4825 57.9823 64.7729 56.6751 61.8008 56.5523L61.5364 59.8668C61.5249 60.0195 61.3962 60.135 61.246 60.135C61.238 60.135 61.2311 60.1343 61.2231 60.134C61.0628 60.1215 60.9431 59.981 60.9556 59.8204L61.6204 51.4888C57.9439 52.6444 53.847 50.1358 53.6666 50.0615L53.2274 54.8114C53.864 55.5958 54.9447 55.6291 55.9192 55.9708C56.2811 56.0964 56.093 56.6511 55.7281 56.5207C54.7778 56.1915 53.5948 56.1339 52.8138 55.2429C52.588 55.3012 53.5368 55.2395 49.3098 55.2926C46.389 55.3151 43.3683 57.8453 43.4026 60.7741L43.5692 74.6316C43.6542 74.6368 43.736 74.6694 43.7909 74.7516C51.8091 86.6978 64.1634 90.6136 81.5755 86.7443C81.5693 86.7044 81.3819 85.4739 81.1384 83.8745C80.551 83.6549 80.0434 83.2219 79.7454 82.6162ZM57.0974 61.5439C57.4627 61.5522 57.8291 61.5543 58.1843 61.5245L57.58 57.2715C57.5571 57.1122 57.6678 56.9648 57.827 56.9419C57.9796 56.9214 58.1333 57.0296 58.1559 57.1896L58.7582 61.4273C59.0191 61.3621 59.2598 61.2785 59.4534 61.156C59.7847 60.952 60.0886 61.4437 59.7653 61.649C59.5044 61.8138 59.1849 61.9217 58.84 62.0019L60.0963 70.8413C60.2569 70.7973 60.4134 70.7352 60.5587 70.6512C60.6975 70.5693 60.8741 70.6172 60.957 70.756C61.0379 70.8948 60.991 71.0734 60.8522 71.1543C60.6417 71.2774 60.4134 71.3617 60.1785 71.4186L60.3516 72.6367C60.3769 72.8129 60.2399 72.9691 60.0637 72.9691C59.9204 72.9691 59.7962 72.8643 59.7757 72.7186L59.6016 71.4929C59.1009 71.5022 58.669 71.385 58.2881 71.1692C58.1493 71.0894 58.1004 70.9121 58.1788 70.7719C58.2596 70.6314 58.4359 70.5811 58.5771 70.6627C58.8636 70.8257 59.1904 70.9041 59.5186 70.9104L58.2666 62.1014C57.8079 62.1431 57.598 62.1406 57.0943 62.1271C56.9337 62.1236 56.8008 61.9901 56.8053 61.8287C56.8084 61.6678 56.9472 61.5585 57.0974 61.5439Z" fill="white"/>
<path d="M49.9729 138.262L47.1221 140.6L47.1245 140.6L48.1258 140.53L50.5214 138.565C50.6265 138.472 50.6612 138.332 50.5914 138.203L46.694 130.385L52.4472 125.426C52.5637 125.332 52.5873 125.169 52.5055 125.04L47.5461 117.619L52.4822 111.796C52.5755 111.691 52.5755 111.527 52.4822 111.423L46.9972 104.981L52.4142 98.8027L51.5514 98.8936L46.3904 104.794C46.2971 104.899 46.2971 105.062 46.3904 105.167L51.8751 111.609L46.9622 117.408C46.8803 117.513 46.8689 117.653 46.9389 117.758L51.8751 125.157L46.1337 130.093C46.0404 130.186 46.0053 130.326 46.0636 130.443L49.9729 138.262Z" fill="white"/>
<path d="M91.3646 134.154C91.3646 136.38 89.5348 138.315 87.2971 138.443C35.3136 141.992 36.692 141.905 36.4824 141.905C34.1629 141.905 32.2169 140.19 32.2169 137.86V11.2085C32.2169 8.87055 34.2479 7.02175 36.7857 7.18759L87.2971 10.6257C89.5348 10.7773 91.3646 12.7118 91.3646 14.938V53.5383C93.6123 52.4143 95.3338 52.5222 95.8209 52.4663V10.3294C95.8209 7.76523 93.7348 5.54452 91.1703 5.38007L57.631 3.11635L32.1864 1.01533C29.3645 0.819314 26.877 2.79786 26.877 5.6146V143.454C26.877 146.167 29.2052 148.232 32.1923 148.065L57.1873 146.385L91.1658 143.712C93.7334 143.537 95.8209 141.316 95.8209 138.762V100.257C94.3315 99.7888 92.8494 99.31 91.3646 98.8368V134.154Z" fill="white"/>
<path d="M67.9441 96.5774L67.5153 92.9336L62.1035 93.5432L62.523 97.1197C62.5243 97.1311 62.5143 97.1394 62.5143 97.1509L67.9441 96.5774Z" fill="white"/>
<path d="M86.9876 133.139L90.6321 135.141C90.7005 134.946 90.7352 134.74 90.7584 134.545L87.4782 132.743L89.3918 125.391C89.4269 125.239 89.3568 125.099 89.217 125.041L80.9312 121.739L81.6782 114.153C81.69 114.013 81.5966 113.873 81.4683 113.838L73.2998 111.656L74.2448 103.382C74.2681 103.231 74.1515 103.079 73.9999 103.067C73.825 103.044 73.6849 103.161 73.6731 103.324L72.693 111.843C72.6698 111.983 72.7631 112.111 72.9029 112.158L81.0714 114.34L80.3245 121.902C80.3127 122.03 80.3827 122.158 80.5111 122.205L88.7615 125.484L86.8478 132.813C86.8124 132.941 86.8707 133.081 86.9876 133.139Z" fill="white"/>
<path d="M105.258 67.9484C106.783 67.8079 108.195 67.6722 109.529 67.54C108.103 67.6771 106.673 67.8183 105.258 67.9453C105.258 67.9453 105.258 67.948 105.258 67.9484Z" fill="white"/>
<path d="M62.543 139.55L76.7269 138.583L76.7332 138.583C72.1752 130.767 67.5419 123.139 63.182 116.253C63.4474 123.049 63.3791 131.135 62.543 139.55Z" fill="white"/>
<path d="M43.5781 75.4512L43.6 77.2608L44.375 94.9536L67.5566 92.3433C67.6656 92.2295 67.7867 92.2166 67.9174 92.3027L74.0356 91.6137L73.7889 88.5575C61.1287 89.7076 50.8481 86 43.5781 75.4512Z" fill="white"/>
<path d="M61.9552 97.2099C61.9535 97.2016 61.9448 97.1967 61.9438 97.188L61.524 93.6084L55.998 94.2305C56.4605 98.4089 56.4282 97.5717 56.3845 97.7997C56.7162 97.765 61.8456 97.2213 61.9552 97.2099Z" fill="white"/>
<path d="M68.0938 92.8688L68.5229 96.5168L74.3819 95.8982L74.0832 92.1943L68.0938 92.8688Z" fill="white"/>
<path d="M90.7818 98.6519C88.5801 97.9494 86.3761 97.252 84.1734 96.5457L80.5372 95.3803C80.4207 95.3335 80.3391 95.2287 80.3391 95.1122C80.2458 92.6181 80.1993 90.0889 80.1525 87.6299C78.1552 88.0306 76.2311 88.3196 74.3691 88.51L74.9759 96.0371C74.9759 96.0374 74.9763 96.0374 74.9763 96.0378L74.9877 96.1196C74.9978 96.198 74.9763 96.2778 74.9274 96.3392C74.9156 96.3545 74.8934 96.3538 74.8791 96.366C80.4661 104.592 85.7658 113.049 90.7814 121.715V98.6519H90.7818Z" fill="white"/>
<path d="M96.4323 69.2947C96.9073 79.558 95.9685 89.3674 96.5281 99.773C96.5281 99.773 96.5281 99.773 96.5284 99.773C106.098 99.0302 116.319 97.8843 128.089 96.5912C127.64 86.1649 128.155 76.7412 127.157 66.2656C118.048 67.1479 112.737 67.9673 96.4323 69.2947ZM125.093 93.9865L116.383 95.0793V89.6842L125.093 88.5914V93.9865Z" fill="white"/>
<path d="M49.9001 43.9875C49.3481 44.024 48.9273 44.0101 48.4613 43.9723C50.1887 47.2764 53.7264 50.0557 57.3809 50.9289C59.5836 51.4649 61.5066 51.2204 62.7889 50.2531C66.8914 46.9899 65.9123 41.5236 64.1523 34.7057C62.6983 34.7255 62.1159 34.6162 61.6537 34.5767C60.1161 35.1963 59.7945 35.7809 59.5208 35.7809C59.2471 35.7809 59.125 35.435 59.3376 35.2629C59.7362 34.9399 60.1737 34.6703 60.6265 34.4282C60.6209 34.4271 60.6147 34.4268 60.6091 34.4258C58.3829 34.0643 56.3551 33.2719 54.4903 32.0947C53.453 34.0993 51.8214 35.7077 49.6301 36.873L49.7817 41.1736C49.7817 41.4629 49.3942 41.5847 49.2457 41.3366C45.3265 35.4575 42.1864 41.5368 47.5662 43.2708C47.85 43.3048 48.6546 43.4838 49.8612 43.4057C50.2539 43.3714 50.2813 43.9619 49.9001 43.9875ZM62.136 36.1982C62.6206 36.125 63.107 36.6867 63.2226 37.452C63.3381 38.2177 63.0387 38.8974 62.554 38.9706C62.0694 39.0438 61.583 38.4821 61.4674 37.7168C61.3516 36.9511 61.651 36.2711 62.136 36.1982ZM58.0935 41.9358C58.1071 41.7758 58.2254 41.6648 58.4089 41.67C58.7496 41.6988 59.3741 41.6562 59.5836 41.3866C59.7487 41.177 59.654 40.8277 59.4663 40.6452C59.0407 40.2358 57.9319 40.1356 58.4658 37.5454C58.5456 37.1658 59.1132 37.2872 59.0372 37.6637C58.9279 38.19 58.7902 39.271 59.1499 39.6769C59.2936 39.8375 59.6748 40.0377 59.8716 40.2268C60.2983 40.641 60.3746 41.3224 60.0433 41.7464C59.6856 42.2001 58.9248 42.3004 58.3589 42.2504C58.1983 42.2369 58.08 42.0957 58.0935 41.9358ZM56.9327 44.3414C57.272 44.6762 57.7931 44.8719 58.3985 44.8934C58.9938 44.9218 59.5912 44.7803 60.1238 44.6599C60.522 44.5711 60.8714 44.4795 61.1025 44.2599C61.2187 44.1499 61.4029 44.1541 61.5146 44.2713C61.6249 44.3879 61.6204 44.5725 61.5032 44.6835C61.1368 45.0311 60.6244 45.1456 60.2511 45.2292C59.2134 45.4599 58.1702 45.6545 57.1939 45.2112C57.8864 46.8757 59.8493 47.4513 61.3026 46.5736C61.4379 46.491 61.618 46.5344 61.702 46.6721C61.7852 46.8098 61.7408 46.9892 61.6031 47.0721C59.7078 48.2177 57.1041 47.2719 56.5108 45.004C56.4744 44.8608 56.447 44.7168 56.4369 44.5697C56.4179 44.3084 56.7353 44.1492 56.9327 44.3414ZM54.6631 40.4298C54.1441 40.5775 53.5342 40.0325 53.3007 39.2127C53.0672 38.3929 53.2989 37.6085 53.8179 37.4607C54.337 37.3129 54.9469 37.858 55.1803 38.6777C55.4138 39.4975 55.1821 40.282 54.6631 40.4298ZM51.728 35.6799C52.585 35.4135 53.5116 35.3278 54.4015 35.4284C54.7734 35.4718 54.7318 36.0386 54.3356 36.0078C53.5217 35.9144 52.6817 35.9925 51.9012 36.2364C51.7547 36.2832 51.5861 36.2034 51.5369 36.0445C51.489 35.8915 51.5743 35.7278 51.728 35.6799Z" fill="white"/>
<path d="M122.926 55.438L121.003 51.627L119.138 55.4616C119.103 55.5549 119.021 55.6132 118.928 55.6246L114.709 56.2772L117.797 59.2376C117.867 59.3077 117.902 59.4006 117.879 59.494L117.203 63.6898L120.944 61.6734C121.037 61.6269 121.13 61.6269 121.223 61.6734L125.011 63.6315L124.253 59.4242C124.23 59.3309 124.265 59.2376 124.335 59.1679L127.365 56.1724L123.146 55.5896C123.054 55.5778 122.972 55.5195 122.926 55.438Z" fill="white"/>
<path d="M104.546 67.9792C107.449 63.1357 105.733 57.6507 101.702 54.8558C97.2731 51.7789 91.2275 52.6868 88.1943 57.047C86.4343 59.5876 86.0613 62.8626 87.2038 65.823C87.4484 66.4523 87.7166 67.0001 88.043 67.5014L88.2023 67.763C90.9735 68.1117 93.6102 68.4337 96.1452 68.7344C99.3457 68.4746 102.084 68.238 104.529 68.0153C104.534 68.0028 104.537 67.9882 104.546 67.9792ZM94.2465 66.5051C89.1355 66.2039 89.4738 60.4657 94.5848 60.7668C94.5806 60.7665 94.566 60.696 94.5646 60.6898C94.2382 59.4089 94.3849 57.9137 95.4719 57.0304C96.7683 55.9767 98.8846 56.2532 99.9646 58.1905C100.478 59.1113 100.427 59.3506 101.382 66.5571L94.2465 66.5051Z" fill="white"/>
<path d="M134.209 71.417C130.526 74.9251 130.269 80.6707 133.649 84.2253C137.041 87.7918 142.787 87.8383 146.481 84.3301C150.164 80.8337 150.421 75.0764 147.041 71.5217C143.594 67.9039 137.86 67.9577 134.209 71.417ZM143.751 82.1149C142.728 82.4359 141.977 82.2742 135.784 81.8214L137.194 75.2679C138.447 70.6239 143.661 72.0307 142.408 76.6744C142.409 76.6706 142.477 76.6709 142.483 76.6706C143.724 76.615 145.071 77.0352 145.676 78.2036C146.398 79.5973 145.74 81.4912 143.751 82.1149Z" fill="white"/>
<path d="M26.2946 143.455V5.61543C26.2946 2.49339 29.0284 0.213014 32.2302 0.43505L32.4356 0.452049L30.6243 0.142586C28.4535 -0.00902259 26.3879 -0.324036 24.5325 1.04114C21.4469 3.33054 22.0471 6.5577 22.0471 8.98795V141.623C22.0471 143.665 22.479 145.941 23.7741 147.586C25.6534 149.938 29.1241 149.124 32.0061 148.657C28.9292 148.754 26.2946 146.537 26.2946 143.455Z" fill="#1C1917"/>
<path d="M81.2715 66.8598L82.2505 66.9764L87.4212 67.6185C87.1301 67.1412 86.8821 66.6197 86.6559 66.0324C86.6462 66.0071 86.6368 65.9814 86.6274 65.9561L81.7378 66.4286L80.5606 66.5333L79.4883 66.6381L81.2715 66.8598Z" fill="#D3D3D3"/>
<path d="M112.274 67.2618C112.472 67.2413 114.351 67.0401 116.648 66.7938C115.578 66.2769 114.66 65.6066 113.899 64.8257L106.522 64.3857C106.399 65.2277 106.162 66.0652 105.797 66.8795L112.274 67.2618Z" fill="#D3D3D3"/>
<path d="M126.852 65.7123C127.077 65.6866 127.296 65.6613 127.506 65.637L126.553 65.5801C126.473 65.6425 126.392 65.7032 126.311 65.7629C126.548 65.7411 126.722 65.7247 126.852 65.7123Z" fill="#D3D3D3"/>
<path d="M95.4718 57.0309C94.3849 57.9142 94.2385 59.4094 94.5646 60.6903C94.566 60.6962 94.5805 60.767 94.5847 60.7673C89.4737 60.4662 89.1354 66.2044 94.2464 66.5056L101.381 66.5576C100.427 59.3508 100.478 59.1118 99.9642 58.191C98.8846 56.2534 96.7683 55.9769 95.4718 57.0309Z" fill="#D3D3D3"/>
<path d="M142.482 76.6713C142.476 76.6716 142.408 76.6716 142.407 76.6751C143.66 72.0311 138.446 70.6246 137.193 75.2686L135.783 81.8222C141.976 82.2749 142.726 82.4369 143.75 82.1157C145.738 81.4919 146.397 79.598 145.675 78.2044C145.07 77.0359 143.722 76.6158 142.482 76.6713Z" fill="#1C1917"/>
<path d="M124.903 48.7918C120.083 46.6211 114.354 48.8969 112.101 53.8796C110.422 57.5959 111.102 61.9554 113.899 64.8246L126.555 65.5791C127.806 64.6025 128.851 63.3074 129.548 61.7563C131.8 56.7737 129.722 50.974 124.903 48.7918ZM128.195 56.1724L124.85 59.4707L125.69 64.1092C125.735 64.3135 125.508 64.5297 125.27 64.4239L121.086 62.2559L116.949 64.4821C116.762 64.607 116.479 64.4308 116.529 64.1793L117.287 59.5523L113.884 56.3005C113.721 56.1377 113.799 55.8241 114.047 55.7991L118.685 55.0765L120.736 50.8457C120.85 50.6181 121.157 50.6385 121.249 50.8457L123.382 55.0296L128.032 55.6822C128.272 55.7072 128.385 56.0101 128.195 56.1724Z" fill="#1C1917"/>
<path d="M116.646 66.7933C120.571 66.3725 125.717 65.8198 125.792 65.8115C125.992 65.7928 126.163 65.7765 126.31 65.7626C126.391 65.7029 126.472 65.6419 126.552 65.5798L113.896 64.8252C114.658 65.6061 115.576 66.2768 116.646 66.7933Z" fill="#1C1917"/>
<path d="M83.1486 83.7719C82.495 84.0935 81.7699 84.1087 81.1367 83.8732C81.3803 85.4729 81.568 86.7031 81.5739 86.743L81.6439 87.2325L82.3201 87.1624L84.5693 86.9525L84.4759 86.3114L84.3944 85.7404L83.9961 83.0957C83.7724 83.3719 83.4875 83.605 83.1486 83.7719Z" fill="#1C1917"/>
<path d="M80.5262 75.8235L79.9434 75.8936V76.0452V76.057C79.9572 76.1395 80.0211 76.5222 80.0367 76.6162C80.0353 76.6166 80.0336 76.6169 80.0322 76.6173C80.1023 77.0766 80.2698 78.1764 80.4697 79.4892C80.6036 79.3854 80.7496 79.2935 80.9075 79.2158C81.7477 78.8026 82.7084 78.8976 83.438 79.383L83.0317 76.686L82.9502 76.1149L82.8687 75.5557L80.5262 75.8235Z" fill="#1C1917"/>
<path d="M79.9451 76.0442V75.8926H79.9219L79.9451 76.0442Z" fill="#1C1917"/>
<path d="M79.9448 76.056C79.9444 76.0528 79.9437 76.05 79.9434 76.0479C79.9437 76.0503 79.9441 76.0528 79.9448 76.056Z" fill="#1C1917"/>
<path d="M80.0008 76.4172L79.9426 76.056C79.9419 76.0529 79.9415 76.0502 79.9412 76.0481C79.9412 76.047 79.9408 76.0463 79.9408 76.0453V76.0449C78.1562 76.4554 76.391 76.6833 74.6498 76.768C72.8894 75.5641 71.1496 74.0074 69.6963 72.4348C69.588 72.3182 69.4028 72.3106 69.2841 72.4188C69.1658 72.5281 69.1589 72.7123 69.2682 72.831C70.3624 74.0137 71.5503 75.1152 72.8076 76.1251L72.8648 76.8148C62.912 76.6718 53.9772 71.2167 48.0665 61.3243C47.985 61.1845 47.7983 61.138 47.6703 61.231C47.5305 61.3125 47.484 61.4874 47.5655 61.6272C55.3368 74.608 67.7726 79.439 80.031 76.616C80.0151 76.5109 80.004 76.4394 79.9991 76.4065C79.9998 76.4099 80.0002 76.413 80.0008 76.4172ZM73.4487 76.8013L73.4327 76.6084C73.5136 76.6687 73.6007 76.7374 73.6791 76.795C73.602 76.7961 73.525 76.8009 73.4487 76.8013Z" fill="#1C1917"/>
<path d="M79.9417 76.045C79.9417 76.0461 79.942 76.0468 79.942 76.0479C79.9424 76.05 79.9427 76.0529 79.9435 76.0561V76.0439C79.9427 76.0439 79.942 76.0443 79.9417 76.0443C79.9413 76.0447 79.9413 76.045 79.9417 76.045Z" fill="#1C1917"/>
<path d="M79.9992 76.3932C79.9977 76.3847 79.9977 76.3844 79.9992 76.3932Z" fill="#1C1917"/>
<path d="M80.002 76.4178C80.0013 76.4136 80.001 76.4105 80.0003 76.4074C79.9992 76.4011 79.9985 76.3963 79.9982 76.3928C79.9971 76.3848 79.9968 76.3845 79.9982 76.3928C79.9989 76.3963 79.9996 76.4011 80.0003 76.4074C80.0051 76.4404 80.0162 76.5118 80.0322 76.6169C80.0336 76.6166 80.0353 76.6162 80.0367 76.6159C80.0211 76.5215 79.9572 76.1392 79.9434 76.0566L80.002 76.4178Z" fill="#1C1917"/>
<path d="M80.0001 76.4072C79.9991 76.4009 79.9984 76.396 79.998 76.3926C79.9984 76.396 79.9994 76.4006 80.0001 76.4072Z" fill="#1C1917"/>
<path d="M57.0954 62.1272C57.5992 62.1404 57.8091 62.1431 58.2677 62.1015L59.5198 70.9104C59.1916 70.9045 58.8648 70.8258 58.5782 70.6627C58.437 70.5812 58.2608 70.6315 58.1799 70.772C58.1015 70.9122 58.1504 71.0894 58.2892 71.1692C58.6698 71.3854 59.1017 71.5026 59.6027 71.4929L59.7768 72.7186C59.7973 72.8644 59.9215 72.9691 60.0648 72.9691C60.241 72.9691 60.3781 72.813 60.3528 72.6368L60.1796 71.4187C60.4149 71.3614 60.6431 71.2771 60.8534 71.1543C60.9922 71.0735 61.039 70.8948 60.9582 70.756C60.8752 70.6173 60.6986 70.5694 60.5599 70.6513C60.4145 70.7356 60.2584 70.7973 60.0974 70.8414L58.8412 62.0019C59.186 61.9218 59.5056 61.8139 59.7664 61.6491C60.0898 61.4441 59.7859 60.9521 59.4546 61.1561C59.261 61.2786 59.0202 61.3622 58.7593 61.4274L58.157 57.1896C58.1341 57.0297 57.9808 56.9215 57.8281 56.9419C57.6689 56.9648 57.5582 57.1123 57.5811 57.2715L58.1862 61.5246C57.8309 61.5547 57.4646 61.5527 57.0992 61.544C56.949 61.5589 56.8102 61.6682 56.8068 61.8285C56.8019 61.9898 56.9351 62.1237 57.0954 62.1272Z" fill="#1C1917"/>
<path d="M53.8172 37.4606C53.2982 37.6084 53.0664 38.3928 53.2999 39.2126C53.533 40.0324 54.1433 40.5774 54.6623 40.4296C55.1813 40.2819 55.4131 39.4974 55.1796 38.6776C54.9461 37.8578 54.3362 37.3132 53.8172 37.4606Z" fill="#1C1917"/>
<path d="M62.5528 38.9702C63.0374 38.897 63.3368 38.2173 63.2213 37.4516C63.1058 36.686 62.6194 36.1246 62.1347 36.1978C61.6501 36.271 61.3507 36.9507 61.4662 37.7163C61.5817 38.4817 62.0681 39.0434 62.5528 38.9702Z" fill="#1C1917"/>
<path d="M58.3563 42.2509C58.9225 42.3005 59.683 42.2006 60.0407 41.7468C60.372 41.3228 60.2956 40.6418 59.8689 40.2272C59.6722 40.0382 59.2909 39.8383 59.1473 39.6773C58.7879 39.2714 58.9256 38.19 59.0346 37.6641C59.1105 37.2877 58.543 37.1663 58.4632 37.5458C57.9292 40.1356 59.038 40.2363 59.4637 40.6456C59.6514 40.8285 59.7461 41.1778 59.581 41.387C59.3718 41.6566 58.7469 41.6993 58.4063 41.6705C58.2231 41.6653 58.1048 41.7763 58.0909 41.9362C58.0774 42.0962 58.1957 42.2373 58.3563 42.2509Z" fill="#1C1917"/>
<path d="M51.901 36.2366C52.6816 35.9923 53.5219 35.9146 54.3354 36.0079C54.732 36.0388 54.7733 35.4723 54.4014 35.4286C53.5111 35.3279 52.5848 35.4136 51.7279 35.6801C51.5742 35.728 51.4889 35.8917 51.5367 36.0447C51.586 36.2033 51.7546 36.2834 51.901 36.2366Z" fill="#1C1917"/>
<path d="M56.5096 45.0033C57.1025 47.2712 59.7066 48.2169 61.6019 47.0714C61.7396 46.9881 61.784 46.8091 61.7008 46.6714C61.6165 46.5336 61.4367 46.4903 61.3014 46.5728C59.8482 47.4506 57.8852 46.875 57.1927 45.2104C58.169 45.6538 59.2122 45.4595 60.2499 45.2285C60.6232 45.1449 61.1353 45.0304 61.502 44.6827C61.6192 44.5717 61.6237 44.3875 61.5134 44.2706C61.4021 44.1533 61.2175 44.1495 61.1013 44.2591C60.8702 44.4788 60.5209 44.5703 60.1226 44.6592C59.59 44.7792 58.9923 44.9211 58.3973 44.8926C57.7919 44.8711 57.2705 44.6751 56.9315 44.3407C56.7341 44.1485 56.4167 44.3077 56.4364 44.569C56.4461 44.7161 56.4732 44.86 56.5096 45.0033Z" fill="#1C1917"/>
<path d="M133.811 70.9978C129.883 74.7155 129.627 80.8344 133.228 84.634C136.873 88.4651 142.991 88.4367 146.876 84.762C150.803 81.0325 151.06 74.9136 147.459 71.1144C143.849 67.336 137.755 67.2478 133.811 70.9978ZM146.48 84.3307C142.785 87.8389 137.04 87.7921 133.648 84.226C130.268 80.6713 130.524 74.9254 134.207 71.4176C137.859 67.9583 143.592 67.9046 147.039 71.5224C150.419 75.0767 150.163 80.8344 146.48 84.3307Z" fill="#1C1917"/>
<path d="M120.992 50.9746L118.88 55.339L114.084 56.0859L117.597 59.4467L116.815 64.2312L121.086 61.9324L125.403 64.1615L124.54 59.3769L127.994 55.9694L123.186 55.3043L120.992 50.9746ZM124.336 59.1684C124.266 59.2385 124.231 59.3315 124.255 59.4248L125.012 63.6321L121.225 61.674C121.131 61.6275 121.038 61.6275 120.945 61.674L117.204 63.6903L117.88 59.4945C117.903 59.4012 117.868 59.3082 117.799 59.2382L114.71 56.2778L118.929 55.6252C119.023 55.6138 119.104 55.5551 119.139 55.4622L121.004 51.6275L122.927 55.4386C122.974 55.5201 123.055 55.5784 123.148 55.5902L127.367 56.173L124.336 59.1684Z" fill="#1C1917"/>
<path d="M121.248 50.8467C121.156 50.6396 120.849 50.6191 120.735 50.8467L118.684 55.0775L114.045 55.8002C113.798 55.8248 113.72 56.1384 113.882 56.3015L117.286 59.5533L116.528 64.1803C116.478 64.4322 116.76 64.6084 116.947 64.4832L121.085 62.2569L125.269 64.4249C125.507 64.5307 125.734 64.3146 125.688 64.1102L124.849 59.4718L128.194 56.1735C128.383 56.0111 128.27 55.7079 128.031 55.684L123.381 55.0314L121.248 50.8467ZM124.54 59.3764L125.403 64.1609L121.086 61.9319L116.815 64.2306L117.597 59.4461L114.084 56.0854L118.88 55.3384L120.992 50.974L123.186 55.3034L127.994 55.9684L124.54 59.3764Z" fill="#1C1917"/>
<path d="M94.918 81.9889C94.9366 81.9853 94.9358 81.9856 94.918 81.9889Z" fill="#1C1917"/>
<path d="M94.0234 77.1394C94.0276 77.1387 94.0308 77.138 94.0329 77.1377C94.0308 77.138 94.0276 77.1384 94.0234 77.1394Z" fill="#1C1917"/>
<path d="M90.0358 79.7197C90.0362 79.7197 90.0362 79.7197 90.0358 79.7197C90.0297 79.7209 90.0297 79.7209 90.0358 79.7197Z" fill="#1C1917"/>
<path d="M125.823 66.0985C125.811 66.1103 125.811 66.0985 125.811 66.0985C122.625 66.4253 119.93 66.7289 117.176 67.0321C117.022 66.9683 116.872 66.901 116.724 66.8309C115.124 66.9995 113.627 67.1518 112.389 67.2687L105.478 66.8607C105.839 66.0565 106.084 65.2173 106.201 64.3666L106.519 64.3857C107.351 58.6523 102.808 52.7063 96.4031 52.4794V10.3303C96.4031 7.46433 94.0721 4.98342 91.2075 4.79955L57.6741 2.53617L32.4349 0.452148L35.7373 1.01626C35.212 0.981219 33.8441 0.726224 33.3542 0.819549L32.2107 0.726224C29.1182 0.516331 26.5859 2.70998 26.5859 5.61588V143.455C26.5859 146.373 29.1182 148.555 32.2104 148.356L33.4358 148.275C33.8909 148.356 34.9522 148.1 35.4539 148.065C35.4539 148.065 36.0367 148.245 33.5391 148.455C33.0576 148.495 32.5417 148.57 32.0054 148.657C32.0799 148.655 32.1545 148.652 32.2295 148.646L57.229 146.967L91.2075 144.294C94.0721 144.098 96.4031 141.617 96.4031 138.764V100.368C106.658 99.5767 117.088 98.386 128.426 97.1399C128.578 97.1166 128.683 96.9883 128.683 96.837C128.204 86.2209 128.761 76.7198 127.715 65.9171C127.685 65.7353 127.547 65.6381 127.389 65.6607C127.24 65.676 127.274 65.6728 126.851 65.7124C126.669 65.7332 126.483 65.7544 126.292 65.7762C126.139 65.8883 125.982 65.9958 125.823 66.0985ZM109.528 67.54C108.195 67.6722 106.782 67.8075 105.257 67.9484C105.257 67.948 105.257 67.9452 105.257 67.9452C106.672 67.8183 108.102 67.6771 109.528 67.54ZM95.8206 138.763C95.8206 141.317 93.7331 143.538 91.1655 143.713L57.187 146.386L32.192 148.066C29.2053 148.232 26.8767 146.168 26.8767 143.455V5.61553C26.8767 2.79879 29.3642 0.820243 32.1861 1.01626L57.6308 3.11728L91.17 5.381C93.7342 5.54545 95.8206 7.76616 95.8206 10.3303V52.4672C95.3335 52.5234 93.6121 52.4155 91.3643 53.5393V14.939C91.3643 12.7131 89.5346 10.7782 87.2969 10.6266L36.7854 7.18852C34.2479 7.02268 32.2166 8.87148 32.2166 11.2095V137.861C32.2166 140.191 34.1626 141.905 36.4822 141.905C36.6921 141.905 35.3133 141.993 87.2969 138.444C89.5346 138.316 91.3643 136.381 91.3643 134.155V98.8374C92.8492 99.3106 94.3312 99.7897 95.8206 100.258V138.763ZM80.5105 122.205C80.3822 122.158 80.3121 122.03 80.3239 121.901L81.0708 114.34L72.9023 112.157C72.7622 112.111 72.6688 111.982 72.6924 111.842L73.6725 103.324C73.6843 103.161 73.8241 103.044 73.9993 103.067C74.1509 103.079 74.2679 103.231 74.2443 103.382L73.2992 111.656L81.4677 113.838C81.5961 113.873 81.6894 114.013 81.6776 114.153L80.9307 121.738L89.2161 125.041C89.3562 125.099 89.426 125.239 89.3909 125.391L87.4773 132.743L90.7575 134.545C90.7343 134.74 90.6996 134.946 90.6312 135.141L86.9867 133.139C86.8701 133.081 86.8119 132.941 86.8465 132.812L88.7602 125.484L80.5105 122.205ZM62.1024 93.5429L67.5141 92.9333L67.9429 96.5771L62.5128 97.1503C62.5128 97.1388 62.5228 97.1309 62.5214 97.1191L62.1024 93.5429ZM63.1813 116.254C67.5412 123.14 72.1745 130.768 76.7325 138.584L76.7262 138.584L62.5423 139.551H62.5419C63.3784 131.136 63.4467 123.049 63.1813 116.254ZM74.8795 96.3655C74.8937 96.3534 74.9159 96.3541 74.9277 96.3388C74.9766 96.2774 74.9981 96.1976 74.9881 96.1192L74.9766 96.0373C74.9766 96.037 74.9763 96.037 74.9763 96.0366L74.3695 88.5096C76.2315 88.3195 78.1556 88.0301 80.1528 87.6294C80.1993 90.0885 80.2462 92.6176 80.3395 95.1117C80.3395 95.2283 80.421 95.333 80.5376 95.3799L84.1738 96.5452C86.3765 97.2516 88.5805 97.9493 90.7821 98.6515V121.714C85.7662 113.048 80.4665 104.591 74.8795 96.3655ZM74.3809 95.8979L68.522 96.5164L68.0925 92.8685L74.0819 92.194L74.3809 95.8979ZM67.9173 92.3026C67.7868 92.2166 67.6657 92.2294 67.5565 92.3432L44.3748 94.9535L43.5998 77.2607L43.5779 75.4511C50.8479 86.0002 61.1285 89.7076 73.7887 88.5571L74.0354 91.6132L67.9173 92.3026ZM55.9977 94.2302L61.5237 93.6081L61.9435 97.1877C61.9445 97.1964 61.9532 97.2009 61.9549 97.2096C61.8453 97.2211 56.7159 97.7647 56.3842 97.7997C56.379 97.8004 56.3756 97.8008 56.3728 97.8011C56.3717 97.8011 56.371 97.8011 56.3703 97.8015C56.3669 97.8018 56.3669 97.8018 56.3703 97.8015C56.371 97.8015 56.3717 97.8015 56.3728 97.8011C56.3756 97.8008 56.3794 97.8004 56.3842 97.7997C56.4279 97.5718 56.4605 98.4086 55.9977 94.2302ZM50.1807 94.8855L55.4194 94.2957C55.937 98.4926 55.7823 97.6565 55.8656 97.8549L50.5013 98.4253C50.6585 98.2407 50.5447 98.2972 50.1807 94.8855ZM49.6024 94.9507C50.0465 98.3909 49.9122 98.3184 50.1131 98.4669L44.5549 99.0581L44.4005 95.5367L49.6024 94.9507ZM46.1324 130.094L51.8738 125.157L46.9373 117.759C46.8672 117.654 46.879 117.514 46.9605 117.409L51.8734 111.609L46.3888 105.168C46.2955 105.063 46.2955 104.899 46.3888 104.795L51.5497 98.8947L52.4126 98.8038L46.9959 104.981L52.4806 111.422C52.5739 111.527 52.5739 111.691 52.4806 111.796L47.5444 117.619L52.5038 125.04C52.5857 125.168 52.5621 125.332 52.4455 125.425L46.6923 130.385L50.5898 138.203C50.6599 138.331 50.6248 138.471 50.5197 138.565L48.1241 140.53L47.1229 140.599L47.1205 140.6L49.9712 138.262L46.062 130.443C46.004 130.327 46.0391 130.187 46.1324 130.094ZM95.0473 79.1449C95.5046 78.459 95.2641 77.1316 94.5928 76.7091C94.6161 76.6508 94.6397 76.6043 94.6629 76.546C94.9748 75.6447 94.4613 74.0238 93.4858 74.1803L88.5791 75.0778L89.1384 73.7376C89.7472 72.2392 87.2167 71.1884 86.5978 72.6885L85.3624 75.6721L82.9498 76.1151L83.0313 76.6862L85.6302 76.2199C85.9029 76.1516 85.778 76.0693 87.1338 72.9098C87.4447 72.1327 88.9177 72.7273 88.6024 73.5159L87.845 75.3456C87.7555 75.5469 87.9088 75.7848 88.1597 75.7536L93.5909 74.7631C93.6259 74.7513 93.7189 74.7399 93.8473 74.8912C94.1914 75.2926 94.3174 76.3736 93.9555 76.5554L89.6147 77.3488C89.2414 77.4172 89.3313 77.983 89.7195 77.9223C89.8302 77.9022 93.7779 77.1847 94.0221 77.1403C94.0263 77.1396 94.0294 77.1389 94.0315 77.1386C94.0353 77.1379 94.035 77.1379 94.0315 77.1386C94.0294 77.1389 94.0266 77.1396 94.0221 77.1403C94.5897 77.031 94.9977 78.5853 94.4534 78.9117C92.2115 79.3222 90.14 79.7014 90.0355 79.7204C89.8773 79.7503 89.7729 79.9015 89.8014 80.0597C89.8315 80.2218 89.9866 80.3231 90.1407 80.2943C90.2787 80.2693 94.6844 79.4675 94.4069 79.5178H94.4652C94.5002 79.5178 94.605 79.4946 94.7448 79.6694C95.0362 80.0073 95.176 80.7533 95.0244 81.1845C94.9779 81.3361 94.8964 81.3944 94.8381 81.4058C94.8263 81.4173 94.8149 81.4173 94.8031 81.4173C94.7999 81.418 94.7989 81.4214 94.7958 81.4225L90.4036 82.2256C90.2454 82.2551 90.1407 82.4067 90.1691 82.5649C90.1993 82.727 90.3544 82.8283 90.5084 82.7995C90.6177 82.7793 94.6591 82.0366 94.9186 81.989C94.9366 81.9859 94.9356 81.9859 94.9186 81.989C94.9217 81.989 94.9248 81.989 94.9314 81.989C95.1753 81.989 95.5909 82.9882 95.3627 83.5856C95.2603 83.8916 95.8723 83.5884 84.3955 85.7418L84.477 86.3128L95.3391 84.3315C95.584 84.285 95.7703 84.1216 95.8751 83.8538C95.7634 89.1962 95.659 94.5466 95.9334 99.6808C92.0755 98.4686 88.2062 97.2217 84.3486 95.9863L80.9105 94.8793C80.829 92.4317 80.7822 89.9376 80.7357 87.525C81.2603 87.4084 81.7848 87.2919 82.3208 87.1639L81.6447 87.2339L81.5746 86.7444C64.1624 90.6137 51.8085 86.6979 43.7899 74.7517C43.7351 74.6695 43.6532 74.6369 43.5682 74.6316L43.4017 60.7742C43.367 57.8454 46.3877 55.3152 49.3089 55.2926C53.5359 55.2396 52.5867 55.3013 52.8129 55.243C53.5939 56.134 54.7769 56.1915 55.7271 56.5208C56.0925 56.6512 56.2801 56.0965 55.9183 55.9709C54.9438 55.6292 53.8631 55.5962 53.2265 54.8115L53.6657 50.0616C53.8461 50.1359 57.9426 52.6445 61.6194 51.4889L60.9547 59.8205C60.9422 59.9811 61.0616 60.1216 61.2222 60.1341C61.2302 60.1348 61.2371 60.1351 61.2451 60.1351C61.3953 60.1351 61.524 60.0196 61.5355 59.8669L61.7998 56.5524C64.7723 56.6752 69.4816 57.9824 71.0612 60.1788C71.0653 60.2548 71.0972 60.328 71.1555 60.3807C73.941 62.8283 77.111 64.9027 80.5608 66.5346L81.738 66.4298C78.0227 64.7902 74.662 62.6486 71.6905 60.0605C70.13 57.5529 65.104 56.1097 61.846 55.9716L62.222 51.2578C62.3868 51.1697 62.6637 51.0629 63.1372 50.7076H63.149C67.5662 47.1994 66.5056 41.4771 64.6523 34.3678C64.6523 34.3668 64.6523 34.3668 64.6523 34.3657C73.3589 32.9902 70.9876 21.3891 60.6317 21.2163C56.209 20.894 53.0148 22.8931 50.5561 26.292C50.7743 25.1245 51.2212 23.9935 51.8755 23.0082C51.9643 22.8747 51.9279 22.6936 51.7947 22.6048C51.6594 22.5159 51.4793 22.5513 51.3905 22.6863C50.7279 23.6823 50.2689 24.8192 50.0239 25.9953C49.2444 25.2397 48.3361 24.6097 47.3501 24.1618C46.9935 24.0053 46.7607 24.5344 47.1087 24.6922C47.9992 25.0961 48.8235 25.655 49.5358 26.327C44.0567 26.2233 41.0436 28.7968 41.1598 34.5038C41.5536 38.5494 42.9177 41.6336 45.7279 43.0106C46.2615 43.3898 46.9283 43.7169 47.7873 43.9483C48.9405 46.2894 50.885 48.3627 53.1907 49.7726C53.0166 49.9204 53.1338 49.8274 52.6523 54.6873L49.304 54.7098C46.0703 54.7348 42.7821 57.5175 42.8189 60.7797L43.0055 76.6418L43.8003 95.0888C43.7368 95.1495 43.6935 95.2283 43.7042 95.3226C43.7129 95.4038 43.7583 95.468 43.8187 95.5145C44.0366 99.7831 43.9228 99.3026 44.0449 99.508L43.9381 99.5198C45.6547 108.636 44.7409 124.601 42.0716 140.95L36.75 141.311C34.624 141.448 32.7991 139.935 32.7991 137.861V11.2095C32.7991 9.1799 34.59 7.60865 36.75 7.77136L48.2157 8.5523L52.551 12.958C52.9826 13.3965 53.7555 13.7493 54.3117 13.7809L69.5201 14.6458C70.0599 14.6767 70.8082 14.4154 71.2253 14.0324L75.189 10.3928L75.1987 10.3935L87.2615 11.2095C89.196 11.3375 90.7811 13.0159 90.7811 14.939V53.8775C89.5807 54.5769 88.5316 55.5327 87.716 56.7095C85.8661 59.3913 85.4616 62.8419 86.6269 65.957L86.9236 65.9282C87.1567 66.5343 87.4363 67.1171 87.786 67.6646L87.4207 67.6191C87.4297 67.634 87.4388 67.6497 87.4478 67.6646C87.4485 67.6653 87.4488 67.6663 87.4495 67.667C84.9717 67.3537 82.401 67.0227 79.6741 66.6623C79.4649 66.6363 79.3247 66.8163 79.3476 66.977C79.6158 69.6227 79.8021 72.4665 79.9419 75.8927L80.5248 75.8227C80.3967 72.5594 80.2101 69.8204 79.9655 67.2913C85.8044 68.0604 91.0142 68.7133 95.8508 69.2844C96.0607 73.6897 96.0024 78.1537 95.9091 82.5125C95.839 82.2097 95.711 81.9183 95.5361 81.7202C95.5129 81.6851 95.4779 81.6619 95.4546 81.6268C95.9035 80.9548 95.6083 79.565 95.0473 79.1449ZM49.8598 43.4057C48.6536 43.4841 47.8487 43.3051 47.5649 43.2708C42.185 41.5368 45.3251 35.4575 49.2444 41.3366C49.3932 41.5843 49.7804 41.4629 49.7804 41.1736L49.6288 36.873C51.82 35.7077 53.4516 34.0993 54.4889 32.0947C56.3537 33.2719 58.3815 34.0643 60.6078 34.4258C60.6133 34.4268 60.6196 34.4271 60.6251 34.4282C60.1724 34.6707 59.7345 34.9399 59.3363 35.2629C59.1236 35.435 59.2461 35.7809 59.5194 35.7809C59.7935 35.7809 60.1148 35.1963 61.6524 34.5767C62.1145 34.6162 62.697 34.7255 64.151 34.7057C65.911 41.5236 66.89 46.9899 62.7875 50.2531C61.5056 51.2204 59.5826 51.4653 57.3796 50.9289C53.7246 50.0561 50.1873 47.2764 48.46 43.9723C48.9259 44.0101 49.3467 44.024 49.8987 43.9875C50.2796 43.9619 50.2522 43.3714 49.8598 43.4057ZM88.202 67.7631L88.0428 67.5015C87.7163 67.0005 87.4485 66.4527 87.2035 65.8231C86.0614 62.8627 86.4344 59.5877 88.194 57.0471C91.2272 52.6872 97.2729 51.7789 101.702 54.8559C105.733 57.6504 107.449 63.1357 104.546 67.9792C104.537 67.9883 104.533 68.0028 104.528 68.015C102.084 68.2377 99.3451 68.4743 96.1446 68.7342C93.61 68.4341 90.9733 68.1118 88.202 67.7631ZM128.089 96.5921C116.318 97.8851 106.097 99.031 96.5277 99.7738C96.5277 99.7738 96.5277 99.7738 96.5273 99.7738C95.9681 89.3686 96.9065 79.5588 96.4316 69.2955C112.736 67.9681 118.047 67.1487 127.156 66.2664C128.154 76.742 127.639 86.1657 128.089 96.5921Z" fill="#1C1917"/>
<path d="M56.3852 97.7988C56.38 97.7996 56.376 97.7999 56.373 97.8003C56.376 97.7996 56.3797 97.7992 56.3852 97.7988Z" fill="#1C1917"/>
<path d="M35.4553 148.064C34.9536 148.099 33.8924 148.356 33.4372 148.274L32.2118 148.356C29.1196 148.554 26.5874 146.372 26.5874 143.455V5.61557C26.5874 2.70967 29.1196 0.516028 32.2118 0.725921L33.3553 0.819246C33.8455 0.725921 35.2135 0.981263 35.7384 1.01596L32.436 0.451846L32.2306 0.434846C29.0287 0.21281 26.2949 2.49319 26.2949 5.61523V143.455C26.2949 146.537 28.9295 148.754 32.0065 148.656C32.5428 148.57 33.0587 148.495 33.5402 148.454C36.0378 148.244 35.4553 148.064 35.4553 148.064Z" fill="#1C1917"/>
<path d="M87.4207 67.6197L87.7861 67.6651C87.4363 67.1173 87.1567 66.5348 86.9236 65.9287L86.627 65.9575C86.6363 65.9828 86.6457 66.0085 86.6554 66.0338C86.8813 66.6208 87.1297 67.1423 87.4207 67.6197Z" fill="#1C1917"/>
<path d="M105.479 66.8606L112.39 67.2686C113.627 67.1521 115.124 66.9994 116.725 66.8308C116.699 66.8183 116.672 66.8062 116.646 66.7933C114.349 67.0397 112.47 67.2409 112.272 67.2614L105.795 66.879C106.16 66.0648 106.398 65.2273 106.52 64.3853L106.201 64.3662C106.085 65.2172 105.84 66.0565 105.479 66.8606Z" fill="#1C1917"/>
<path d="M126.293 65.7758C126.484 65.7539 126.67 65.7327 126.852 65.7119C126.721 65.7241 126.547 65.7407 126.311 65.7629C126.305 65.7671 126.299 65.7716 126.293 65.7758Z" fill="#1C1917"/>
<path d="M117.176 67.0323C119.93 66.729 122.626 66.4255 125.811 66.0987C125.811 66.0987 125.811 66.1105 125.823 66.0987C125.982 65.996 126.139 65.8884 126.293 65.7764C123.537 66.0907 119.926 66.4938 116.725 66.831C116.872 66.9008 117.023 66.9681 117.176 67.0323Z" fill="#1C1917"/>
<path d="M126.293 65.7755C126.298 65.7714 126.304 65.7669 126.31 65.7627C126.163 65.7766 125.992 65.7925 125.793 65.8116C125.717 65.8199 120.571 66.3726 116.646 66.7934C116.673 66.8059 116.699 66.8184 116.725 66.8309C119.926 66.493 123.538 66.0902 126.293 65.7755Z" fill="#1C1917"/>
<path d="M79.7452 82.6169C80.0432 83.2227 80.5508 83.6556 81.1375 83.8735C80.9297 82.5108 80.6812 80.8798 80.4693 79.4883C79.535 80.2127 79.2033 81.5154 79.7452 82.6169Z" fill="#1C1917"/>
<path d="M84.3066 80.373C84.1019 79.9566 83.7976 79.6225 83.4375 79.3828L83.9968 83.0967C84.6021 82.3515 84.7586 81.2923 84.3066 80.373Z" fill="#1C1917"/>
<path d="M83.1504 83.7726C83.4894 83.6058 83.7742 83.3726 83.9983 83.0968L83.4391 79.3829C82.7095 78.8976 81.7488 78.8022 80.9085 79.2157C80.7507 79.2934 80.6046 79.3854 80.4707 79.4891C80.6827 80.8806 80.9311 82.5112 81.1389 83.8743C81.7717 84.1092 82.4968 84.0939 83.1504 83.7726Z" fill="#1C1917"/>
<path d="M102.079 48.6566C104.072 46.1924 107.786 45.7317 110.397 46.344C110.769 46.4397 110.908 45.8652 110.531 45.7771C107.752 45.1249 103.78 45.6304 101.626 48.2903C101.384 48.5886 101.834 48.9567 102.079 48.6566Z" fill="#1C1917"/>
<path d="M135.394 57.7056C137.552 58.9587 139.102 61.1707 139.539 63.6218C139.564 63.763 139.688 63.8619 139.826 63.8619C140.007 63.8619 140.145 63.6974 140.113 63.5191C139.647 60.9012 137.992 58.5396 135.688 57.2012C135.547 57.1196 135.369 57.1665 135.29 57.307C135.209 57.4461 135.255 57.6248 135.394 57.7056Z" fill="#1C1917"/>
<path d="M116.383 95.0794L125.093 93.9869V88.5918L116.383 89.6846V95.0794Z" fill="#D3D3D3"/>
</g>
<defs>
<clipPath id="clip0_11523_27707">
<rect width="137" height="149" fill="white" transform="translate(13)"/>
</clipPath>
</defs>
</svg>
